<?xml version="1.0" encoding="UTF-8" standalone="no"?>
<!-- Created with Inkscape (http://www.inkscape.org/) -->

<svg
   width="300"
   height="300"
   viewBox="0 0 79.374998 79.375"
   version="1.1"
   id="svg1"
   inkscape:version="1.4 (86a8ad7, 2024-10-11)"
   sodipodi:docname="proto_base.svg"
   inkscape:export-filename="proto\VGT.png"
   inkscape:export-xdpi="72"
   inkscape:export-ydpi="72"
   xmlns:inkscape="http://www.inkscape.org/namespaces/inkscape"
   xmlns:sodipodi="http://sodipodi.sourceforge.net/DTD/sodipodi-0.dtd"
   xmlns:xlink="http://www.w3.org/1999/xlink"
   xmlns="http://www.w3.org/2000/svg"
   xmlns:svg="http://www.w3.org/2000/svg">
  <sodipodi:namedview
     id="namedview1"
     pagecolor="#ffffff"
     bordercolor="#666666"
     borderopacity="1.0"
     inkscape:showpageshadow="false"
     inkscape:pageopacity="0.0"
     inkscape:pagecheckerboard="0"
     inkscape:deskcolor="#d1d1d1"
     inkscape:document-units="px"
     inkscape:zoom="1.3763619"
     inkscape:cx="80.647391"
     inkscape:cy="162.38461"
     inkscape:window-width="1920"
     inkscape:window-height="1017"
     inkscape:window-x="1912"
     inkscape:window-y="-8"
     inkscape:window-maximized="1"
     inkscape:current-layer="layer2" />
  <defs
     id="defs1">
    <linearGradient
       id="linearGradient10"
       inkscape:collect="always">
      <stop
         style="stop-color:#ccffcc;stop-opacity:1;"
         offset="0.52222222"
         id="stop10" />
      <stop
         style="stop-color:#99ff99;stop-opacity:1;"
         offset="1"
         id="stop11" />
    </linearGradient>
    <linearGradient
       id="linearGradient7"
       inkscape:collect="always">
      <stop
         style="stop-color:#cccccc;stop-opacity:1;"
         offset="0"
         id="stop8" />
      <stop
         style="stop-color:#ffffff;stop-opacity:1;"
         offset="1"
         id="stop9" />
    </linearGradient>
    <linearGradient
       id="linearGradient1"
       inkscape:collect="always">
      <stop
         style="stop-color:#ccffff;stop-opacity:1;"
         offset="0.52737755"
         id="stop1" />
      <stop
         style="stop-color:#66ffff;stop-opacity:1;"
         offset="1"
         id="stop2" />
    </linearGradient>
    <radialGradient
       inkscape:collect="always"
       xlink:href="#linearGradient1"
       id="radialGradient2"
       cx="39.6875"
       cy="39.6875"
       fx="39.6875"
       fy="39.6875"
       r="39.687499"
       gradientTransform="matrix(1,0,0,0.50000001,0,19.84375)"
       gradientUnits="userSpaceOnUse" />
    <linearGradient
       inkscape:collect="always"
       xlink:href="#linearGradient7"
       id="linearGradient9"
       x1="-4.2497905"
       y1="49.561067"
       x2="82.682166"
       y2="49.561067"
       gradientUnits="userSpaceOnUse"
       gradientTransform="matrix(0.7529443,0,0,0.54458396,11.259642,18.952137)" />
    <radialGradient
       inkscape:collect="always"
       xlink:href="#linearGradient10"
       id="radialGradient11"
       cx="41.275"
       cy="39.6875"
       fx="41.275"
       fy="39.6875"
       r="29.104166"
       gradientUnits="userSpaceOnUse"
       gradientTransform="matrix(0.90384615,0,0,0.90384615,2.3812502,3.816106)" />
  </defs>
  <g
     inkscape:label="proto.ANM"
     inkscape:groupmode="layer"
     id="layer1"
     sodipodi:insensitive="true"
     style="display:none">
    <path
       id="path1"
       style="fill:url(#radialGradient2);stroke:#00eeee;stroke-width:3.175;stroke-linecap:square;stroke-linejoin:round;stroke-miterlimit:0;stroke-dasharray:none"
       d="M 20.115582,21.43125 A 18.528081,18.256249 0 0 0 1.5875,39.687499 18.528081,18.256249 0 0 0 20.115582,57.94375 18.528081,18.256249 0 0 0 21.159418,57.87042 v 0.07333 H 58.215581 V 57.87042 A 18.528081,18.256249 0 0 0 59.259417,57.94375 18.528081,18.256249 0 0 0 77.787499,39.687499 18.528081,18.256249 0 0 0 59.259417,21.43125 18.528081,18.256249 0 0 0 58.215581,21.50457 V 21.43125 H 21.159418 v 0.03164 a 18.528081,18.256249 0 0 0 -1.043836,-0.03164 z" />
  </g>
  <g
     inkscape:groupmode="layer"
     id="layer2"
     inkscape:label="proto.VGT"
     style="display:inline">
    <path
       id="rect1"
       style="fill:url(#radialGradient11);stroke:#00ee00;stroke-width:3.175;stroke-linecap:square;stroke-linejoin:round;stroke-miterlimit:0;stroke-opacity:1"
       d="m 20.469213,14.816666 c -3.131464,0 -5.652547,2.521083 -5.652547,5.652547 v 13.56574 c 0,3.131463 2.521083,5.652547 5.652547,5.652547 -3.131464,0 -5.652547,2.521082 -5.652547,5.652546 v 13.565739 c 0,3.131465 2.521083,5.652547 5.652547,5.652547 h 13.565739 c 3.131464,0 5.652547,-2.521082 5.652547,-5.652547 0,3.131465 2.521082,5.652547 5.652547,5.652547 h 13.565739 c 3.131464,0 5.652547,-2.521082 5.652547,-5.652547 V 45.340046 c 0,-3.131464 -2.521083,-5.652546 -5.652547,-5.652546 3.131464,0 5.652547,-2.521084 5.652547,-5.652547 v -13.56574 c 0,-3.131464 -2.521083,-5.652547 -5.652547,-5.652547 H 45.340046 c -3.131465,0 -5.652547,2.521083 -5.652547,5.652547 0,-3.131464 -2.521083,-5.652547 -5.652547,-5.652547 z m 19.218286,19.218287 c 0,3.131463 2.521082,5.652547 5.652547,5.652547 -3.131465,0 -5.652547,2.521082 -5.652547,5.652546 0,-3.131464 -2.521083,-5.652546 -5.652547,-5.652546 3.131464,0 5.652547,-2.521084 5.652547,-5.652547 z" />
  </g>
  <g
     inkscape:groupmode="layer"
     id="layer3"
     inkscape:label="proto.SYN"
     sodipodi:insensitive="true"
     style="display:none">
    <path
       id="path7"
       style="fill:url(#linearGradient9);stroke:#333333;stroke-width:3.175;stroke-linecap:butt;stroke-linejoin:miter;stroke-dasharray:none;stroke-opacity:1"
       d="M 46.967109,28.711064 C 43.28971,28.243144 38.435349,28.067933 33.499133,28.047827 22.639458,28.003597 11.382362,28.711064 11.382362,28.711064 L 27.709152,39.68138 11.534238,50.651407 c 0,0 23.816642,1.497347 35.584317,0 14.816837,-1.885328 23.450968,-10.970027 23.450968,-10.970027 0,0 -8.785576,-9.084988 -23.602414,-10.970316 z"
       sodipodi:nodetypes="sscccscs" />
  </g>
</svg>
