<?xml version="1.0" encoding="UTF-8" standalone="no"?>
<!-- Created with Inkscape (http://www.inkscape.org/) -->

<svg
   width="150"
   height="150"
   viewBox="0 0 39.687499 39.6875"
   version="1.1"
   id="svg1"
   inkscape:version="1.4 (86a8ad7, 2024-10-11)"
   sodipodi:docname="proto_VGT.svg"
   inkscape:export-filename="proto\VGT.png"
   inkscape:export-xdpi="72"
   inkscape:export-ydpi="72"
   xmlns:inkscape="http://www.inkscape.org/namespaces/inkscape"
   xmlns:sodipodi="http://sodipodi.sourceforge.net/DTD/sodipodi-0.dtd"
   xmlns:xlink="http://www.w3.org/1999/xlink"
   xmlns="http://www.w3.org/2000/svg"
   xmlns:svg="http://www.w3.org/2000/svg">
  <sodipodi:namedview
     id="namedview1"
     pagecolor="#ffffff"
     bordercolor="#666666"
     borderopacity="1.0"
     inkscape:showpageshadow="false"
     inkscape:pageopacity="0.0"
     inkscape:pagecheckerboard="0"
     inkscape:deskcolor="#d1d1d1"
     inkscape:document-units="px"
     inkscape:zoom="1.3763619"
     inkscape:cx="80.284117"
     inkscape:cy="161.65806"
     inkscape:window-width="1920"
     inkscape:window-height="1017"
     inkscape:window-x="1912"
     inkscape:window-y="-8"
     inkscape:window-maximized="1"
     inkscape:current-layer="layer2" />
  <defs
     id="defs1">
    <linearGradient
       id="linearGradient10"
       inkscape:collect="always">
      <stop
         style="stop-color:#ccffcc;stop-opacity:1;"
         offset="0.52222222"
         id="stop10" />
      <stop
         style="stop-color:#99ff99;stop-opacity:1;"
         offset="1"
         id="stop11" />
    </linearGradient>
    <radialGradient
       inkscape:collect="always"
       xlink:href="#linearGradient10"
       id="radialGradient11"
       cx="41.275002"
       cy="39.6875"
       fx="41.275002"
       fy="39.6875"
       r="29.104166"
       gradientUnits="userSpaceOnUse"
       gradientTransform="matrix(0.66346155,0,0,0.66346155,-7.5406252,-6.4873802)" />
  </defs>
  <g
     inkscape:groupmode="layer"
     id="layer2"
     inkscape:label="proto.VGT"
     style="display:inline">
    <path
       id="rect1"
       style="fill:url(#radialGradient11);stroke:#00ee00;stroke-width:3.175;stroke-linecap:square;stroke-linejoin:round;stroke-miterlimit:0;stroke-opacity:1"
       d="m 5.7367097,1.5874998 c -2.298628,0 -4.14921,1.850582 -4.14921,4.14921 v 9.9578312 c 0,2.298627 1.850582,4.14921 4.14921,4.14921 -2.298628,0 -4.14921,1.850581 -4.14921,4.149209 v 9.95783 c 0,2.298628 1.850582,4.14921 4.14921,4.14921 H 15.69454 c 2.298628,0 4.14921,-1.850582 4.14921,-4.14921 0,2.298628 1.850582,4.14921 4.14921,4.14921 h 9.95783 C 36.249418,38.1 38.1,36.249418 38.1,33.95079 v -9.95783 c 0,-2.298628 -1.850582,-4.149209 -4.14921,-4.149209 2.298628,0 4.14921,-1.850583 4.14921,-4.14921 V 5.7367098 c 0,-2.298628 -1.850582,-4.14921 -4.14921,-4.14921 h -9.95783 c -2.298628,0 -4.14921,1.850582 -4.14921,4.14921 0,-2.298628 -1.850582,-4.14921 -4.14921,-4.14921 z M 19.84375,15.694541 c 0,2.298627 1.850582,4.14921 4.14921,4.14921 -2.298628,0 -4.14921,1.850581 -4.14921,4.149209 0,-2.298628 -1.850582,-4.149209 -4.14921,-4.149209 2.298628,0 4.14921,-1.850583 4.14921,-4.14921 z" />
  </g>
</svg>
